<mxfile host="app.diagrams.net" agent="Mozilla/5.0 (Windows NT 10.0; Win64; x64) AppleWebKit/537.36 (KHTML, like Gecko) Chrome/128.0.0.0 Safari/537.36" version="24.7.14">
  <diagram id="JN6XzS0kZ7825OW4Boe9" name="Side-1">
    <mxGraphModel dx="2520" dy="1595" grid="1" gridSize="10" guides="1" tooltips="1" connect="1" arrows="1" fold="1" page="1" pageScale="1" pageWidth="827" pageHeight="1169" math="0" shadow="0">
      <root>
        <mxCell id="0" />
        <mxCell id="1" parent="0" />
        <mxCell id="AQ6lfOccu1fUE5pVQRNx-2" value="LagerPersonale" style="shape=umlActor;verticalLabelPosition=bottom;verticalAlign=top;html=1;outlineConnect=0;" vertex="1" parent="1">
          <mxGeometry x="722.5" y="410" width="67.5" height="110" as="geometry" />
        </mxCell>
        <mxCell id="AQ6lfOccu1fUE5pVQRNx-5" value="System" style="label;whiteSpace=wrap;html=1;align=center;verticalAlign=bottom;spacingLeft=0;spacingBottom=4;imageAlign=center;imageVerticalAlign=top;image=img/clipart/Gear_128x128.png" vertex="1" parent="1">
          <mxGeometry x="610" y="1000" width="200" height="100" as="geometry" />
        </mxCell>
        <mxCell id="AQ6lfOccu1fUE5pVQRNx-29" style="edgeStyle=orthogonalEdgeStyle;rounded=0;orthogonalLoop=1;jettySize=auto;html=1;" edge="1" parent="1" source="AQ6lfOccu1fUE5pVQRNx-8" target="AQ6lfOccu1fUE5pVQRNx-23">
          <mxGeometry relative="1" as="geometry" />
        </mxCell>
        <mxCell id="AQ6lfOccu1fUE5pVQRNx-8" value="afsende kemikalier" style="ellipse;whiteSpace=wrap;html=1;" vertex="1" parent="1">
          <mxGeometry x="260" y="220" width="280" height="140" as="geometry" />
        </mxCell>
        <mxCell id="AQ6lfOccu1fUE5pVQRNx-9" value="Modtag kemikalier&amp;nbsp;&lt;div&gt;&lt;br&gt;&lt;/div&gt;&lt;div&gt;&lt;br&gt;&lt;/div&gt;" style="ellipse;whiteSpace=wrap;html=1;" vertex="1" parent="1">
          <mxGeometry x="273" y="40" width="280" height="140" as="geometry" />
        </mxCell>
        <mxCell id="AQ6lfOccu1fUE5pVQRNx-51" style="edgeStyle=orthogonalEdgeStyle;rounded=0;orthogonalLoop=1;jettySize=auto;html=1;" edge="1" parent="1" source="AQ6lfOccu1fUE5pVQRNx-10" target="AQ6lfOccu1fUE5pVQRNx-46">
          <mxGeometry relative="1" as="geometry" />
        </mxCell>
        <mxCell id="AQ6lfOccu1fUE5pVQRNx-10" value="Alarmer brandvæsen" style="ellipse;whiteSpace=wrap;html=1;" vertex="1" parent="1">
          <mxGeometry x="270" y="1060" width="280" height="130" as="geometry" />
        </mxCell>
        <mxCell id="AQ6lfOccu1fUE5pVQRNx-49" style="edgeStyle=orthogonalEdgeStyle;rounded=0;orthogonalLoop=1;jettySize=auto;html=1;" edge="1" parent="1" source="AQ6lfOccu1fUE5pVQRNx-11" target="AQ6lfOccu1fUE5pVQRNx-35">
          <mxGeometry relative="1" as="geometry" />
        </mxCell>
        <mxCell id="AQ6lfOccu1fUE5pVQRNx-11" value="Generer revisondata" style="ellipse;whiteSpace=wrap;html=1;" vertex="1" parent="1">
          <mxGeometry x="260" y="889" width="280" height="140" as="geometry" />
        </mxCell>
        <mxCell id="AQ6lfOccu1fUE5pVQRNx-30" style="edgeStyle=orthogonalEdgeStyle;rounded=0;orthogonalLoop=1;jettySize=auto;html=1;" edge="1" parent="1" source="AQ6lfOccu1fUE5pVQRNx-12" target="AQ6lfOccu1fUE5pVQRNx-2">
          <mxGeometry relative="1" as="geometry" />
        </mxCell>
        <mxCell id="AQ6lfOccu1fUE5pVQRNx-12" value="Opret job" style="ellipse;whiteSpace=wrap;html=1;" vertex="1" parent="1">
          <mxGeometry x="270" y="390" width="280" height="150" as="geometry" />
        </mxCell>
        <mxCell id="AQ6lfOccu1fUE5pVQRNx-38" style="edgeStyle=orthogonalEdgeStyle;rounded=0;orthogonalLoop=1;jettySize=auto;html=1;" edge="1" parent="1" source="AQ6lfOccu1fUE5pVQRNx-13">
          <mxGeometry relative="1" as="geometry">
            <mxPoint x="140" y="800" as="targetPoint" />
          </mxGeometry>
        </mxCell>
        <mxCell id="AQ6lfOccu1fUE5pVQRNx-13" value="Overvåge kapacitet" style="ellipse;whiteSpace=wrap;html=1;" vertex="1" parent="1">
          <mxGeometry x="270" y="730" width="250" height="140" as="geometry" />
        </mxCell>
        <mxCell id="AQ6lfOccu1fUE5pVQRNx-31" style="edgeStyle=orthogonalEdgeStyle;rounded=0;orthogonalLoop=1;jettySize=auto;html=1;" edge="1" parent="1" source="AQ6lfOccu1fUE5pVQRNx-14" target="AQ6lfOccu1fUE5pVQRNx-2">
          <mxGeometry relative="1" as="geometry" />
        </mxCell>
        <mxCell id="AQ6lfOccu1fUE5pVQRNx-14" value="Updatere job status" style="ellipse;whiteSpace=wrap;html=1;" vertex="1" parent="1">
          <mxGeometry x="270" y="570" width="280" height="140" as="geometry" />
        </mxCell>
        <mxCell id="AQ6lfOccu1fUE5pVQRNx-23" value="Chauffør" style="shape=umlActor;verticalLabelPosition=bottom;verticalAlign=top;html=1;outlineConnect=0;" vertex="1" parent="1">
          <mxGeometry x="5" y="22.5" width="135" height="175" as="geometry" />
        </mxCell>
        <mxCell id="AQ6lfOccu1fUE5pVQRNx-28" style="edgeStyle=orthogonalEdgeStyle;rounded=0;orthogonalLoop=1;jettySize=auto;html=1;entryX=0.5;entryY=0.5;entryDx=0;entryDy=0;entryPerimeter=0;" edge="1" parent="1" source="AQ6lfOccu1fUE5pVQRNx-9" target="AQ6lfOccu1fUE5pVQRNx-23">
          <mxGeometry relative="1" as="geometry" />
        </mxCell>
        <mxCell id="AQ6lfOccu1fUE5pVQRNx-35" value="SikkerhedsTeam" style="shape=umlActor;verticalLabelPosition=bottom;verticalAlign=top;html=1;outlineConnect=0;" vertex="1" parent="1">
          <mxGeometry x="40" y="740" width="110" height="110" as="geometry" />
        </mxCell>
        <mxCell id="AQ6lfOccu1fUE5pVQRNx-46" value="Brandvæsen" style="shape=umlActor;verticalLabelPosition=bottom;verticalAlign=top;html=1;outlineConnect=0;" vertex="1" parent="1">
          <mxGeometry x="40" y="1210" width="100" height="125" as="geometry" />
        </mxCell>
        <mxCell id="AQ6lfOccu1fUE5pVQRNx-57" style="edgeStyle=orthogonalEdgeStyle;rounded=0;orthogonalLoop=1;jettySize=auto;html=1;entryX=0.638;entryY=-0.005;entryDx=0;entryDy=0;entryPerimeter=0;" edge="1" parent="1" source="AQ6lfOccu1fUE5pVQRNx-11" target="AQ6lfOccu1fUE5pVQRNx-5">
          <mxGeometry relative="1" as="geometry" />
        </mxCell>
        <mxCell id="AQ6lfOccu1fUE5pVQRNx-58" style="edgeStyle=orthogonalEdgeStyle;rounded=0;orthogonalLoop=1;jettySize=auto;html=1;entryX=0.583;entryY=1.003;entryDx=0;entryDy=0;entryPerimeter=0;" edge="1" parent="1" source="AQ6lfOccu1fUE5pVQRNx-10" target="AQ6lfOccu1fUE5pVQRNx-5">
          <mxGeometry relative="1" as="geometry" />
        </mxCell>
      </root>
    </mxGraphModel>
  </diagram>
</mxfile>
